<svg width="112" height="27" viewBox="0 0 112 27" fill="none" xmlns="http://www.w3.org/2000/svg">
<path d="M111.623 26.8825C106.71 16.8033 80.4793 3.39096 61.7771 1.01007C41.5695 -1.60891 29.9205 0.613254 6.14663 11.8035C6.4635 10.2162 6.85987 8.9464 7.01849 7.75595C7.25624 6.40677 7.494 4.97824 7.4145 3.62906C7.4145 3.23224 6.70125 2.51797 6.22575 2.43861C5.75025 2.35925 4.95787 2.91479 4.79962 3.3116C3.37312 7.12103 2.10524 10.9305 0.757866 14.8193C0.36187 16.0891 0.837372 17.0414 2.18437 17.4382C7.33537 18.708 12.4864 20.0572 17.7165 21.2477C18.9052 21.4858 20.3317 21.1683 21.9165 21.1683C20.6486 17.7557 17.7956 18.1525 15.7354 17.2795C13.5956 16.3272 11.2976 15.7716 8.52412 14.8193C15.1016 10.3749 21.7582 7.59722 28.8109 5.85123C54.645 -0.656554 78.4189 4.74012 100.37 19.1842C103.223 21.0889 105.838 23.3111 108.612 25.2952C109.483 25.692 110.276 26.0888 111.623 26.8825Z" fill="#FBFDFF"/>
</svg>
