<svg width="75" height="49" viewBox="0 0 75 49" fill="none" xmlns="http://www.w3.org/2000/svg">
<path fill-rule="evenodd" clip-rule="evenodd" d="M25.7446 38.6093V10.2178C25.7446 4.69493 30.2218 0.217773 35.7446 0.217773H65.0001C70.523 0.217773 75.0001 4.69492 75.0001 10.2178V38.6093C75.0001 44.1322 70.523 48.6093 65.0001 48.6093H35.7446C30.2218 48.6093 25.7446 44.1322 25.7446 38.6093ZM29.8144 40.5449V37.0806C29.8144 35.4237 31.1576 34.0806 32.8144 34.0806H39.7058C41.3627 34.0806 42.7058 35.4237 42.7058 37.0806V40.5449C42.7058 42.2017 41.3627 43.5449 39.7058 43.5449H32.8144C31.1576 43.5449 29.8144 42.2017 29.8144 40.5449ZM44.0253 37.0806V40.5449C44.0253 42.2017 45.3684 43.5449 47.0253 43.5449H53.9167C55.5735 43.5449 56.9167 42.2017 56.9167 40.5449V37.0806C56.9167 35.4237 55.5735 34.0806 53.9167 34.0806H47.0253C45.3684 34.0806 44.0253 35.4237 44.0253 37.0806ZM29.8144 29.4473V25.983C29.8144 24.3261 31.1576 22.983 32.8144 22.983H39.7058C41.3627 22.983 42.7058 24.3261 42.7058 25.983V29.4473C42.7058 31.1041 41.3627 32.4473 39.7058 32.4473H32.8144C31.1576 32.4473 29.8144 31.1041 29.8144 29.4473ZM44.0253 25.983V29.4473C44.0253 31.1041 45.3684 32.4473 47.0253 32.4473H53.9167C55.5735 32.4473 56.9167 31.1041 56.9167 29.4473V25.983C56.9167 24.3261 55.5735 22.983 53.9167 22.983H47.0253C45.3684 22.983 44.0253 24.3261 44.0253 25.983ZM58.2362 40.0203V25.983C58.2362 24.3261 59.5793 22.983 61.2362 22.983H66.469C68.1258 22.983 69.469 24.3261 69.469 25.983V40.0203C69.469 41.6772 68.1258 43.0203 66.469 43.0203H61.2362C59.5793 43.0203 58.2362 41.6772 58.2362 40.0203ZM29.6675 8.10261V16.3064C29.6675 17.9632 31.0106 19.3064 32.6675 19.3064H67.5461C69.2029 19.3064 70.5461 17.9632 70.5461 16.3064V8.10261C70.5461 6.44575 69.2029 5.10261 67.5461 5.10261H32.6675C31.0106 5.10261 29.6675 6.44575 29.6675 8.10261Z" fill="url(#paint0_linear_23_352)"/>
<path d="M25.0504 48.3066H5.82C4.93497 48.3066 4.21751 47.5891 4.21751 46.7041C4.21751 45.819 4.93497 45.1016 5.82 45.1016H25.0504C25.9354 45.1016 26.6529 45.819 26.6529 46.7041C26.6529 47.5891 25.9354 48.3066 25.0504 48.3066Z" fill="url(#paint1_linear_23_352)"/>
<path d="M24.311 45.1015H5.08064C4.1956 45.1015 3.47814 44.384 3.47814 43.499C3.47814 42.6139 4.1956 41.8965 5.08064 41.8965H24.311C25.196 41.8965 25.9135 42.6139 25.9135 43.499C25.9135 44.384 25.196 45.1015 24.311 45.1015Z" fill="url(#paint2_linear_23_352)"/>
<path d="M26.0206 41.8964H6.7902C5.90517 41.8964 5.18771 41.1789 5.18771 40.2939C5.18771 39.4089 5.90517 38.6914 6.7902 38.6914H26.0206C26.9056 38.6914 27.6231 39.4089 27.6231 40.2939C27.6231 41.1789 26.9056 41.8964 26.0206 41.8964Z" fill="url(#paint3_linear_23_352)"/>
<path d="M20.9525 34.9021L2.37742 39.8793C1.52254 40.1083 0.643829 39.601 0.414765 38.7461C0.185701 37.8913 0.693023 37.0125 1.5479 36.7835L20.123 31.8063C20.9779 31.5772 21.8566 32.0846 22.0857 32.9394C22.3147 33.7943 21.8074 34.673 20.9525 34.9021Z" fill="url(#paint4_linear_23_352)"/>
<defs>
<linearGradient id="paint0_linear_23_352" x1="50.3724" y1="0.217773" x2="50.3724" y2="48.6093" gradientUnits="userSpaceOnUse">
<stop stop-color="#FB9B36"/>
<stop offset="1" stop-color="#FD6A46"/>
</linearGradient>
<linearGradient id="paint1_linear_23_352" x1="15.4352" y1="45.1016" x2="15.4352" y2="48.3066" gradientUnits="userSpaceOnUse">
<stop stop-color="#FFCB44"/>
<stop offset="1" stop-color="#FB9B36"/>
</linearGradient>
<linearGradient id="paint2_linear_23_352" x1="14.6958" y1="41.8965" x2="14.6958" y2="45.1015" gradientUnits="userSpaceOnUse">
<stop stop-color="#FFCB44"/>
<stop offset="1" stop-color="#FB9B36"/>
</linearGradient>
<linearGradient id="paint3_linear_23_352" x1="16.4054" y1="38.6914" x2="16.4054" y2="41.8964" gradientUnits="userSpaceOnUse">
<stop stop-color="#FFCB44"/>
<stop offset="1" stop-color="#FB9B36"/>
</linearGradient>
<linearGradient id="paint4_linear_23_352" x1="10.8355" y1="34.2949" x2="11.665" y2="37.3907" gradientUnits="userSpaceOnUse">
<stop stop-color="#FFCB44"/>
<stop offset="1" stop-color="#FB9B36"/>
</linearGradient>
</defs>
</svg>
