<svg width="57" height="49" viewBox="0 0 57 49" fill="none" xmlns="http://www.w3.org/2000/svg">
<path d="M0.560303 24.1908V5.21777C0.560303 2.45635 2.79888 0.217773 5.56031 0.217773H28.5V24.1908H0.560303Z" fill="url(#paint0_linear_23_360)"/>
<path d="M28.5001 24.1908V0.217773H51.4398C54.2012 0.217773 56.4398 2.45635 56.4398 5.21778V24.1908H28.5001Z" fill="url(#paint1_linear_23_360)"/>
<path d="M0.560303 43.1635V24.1904H28.5V48.1635H5.5603C2.79888 48.1635 0.560303 45.9249 0.560303 43.1635Z" fill="url(#paint2_linear_23_360)"/>
<path d="M28.5001 48.1635V24.1904H56.4398V43.1635C56.4398 45.9249 54.2012 48.1635 51.4398 48.1635H28.5001Z" fill="url(#paint3_linear_23_360)"/>
<path d="M9.7773 11.1269V12.1685C9.7773 12.7284 9.72725 13.2007 9.62716 13.5854C9.52706 13.9702 9.38318 14.2798 9.1955 14.5144C9.00783 14.749 8.78105 14.9195 8.51518 15.0259C8.25243 15.1291 7.95528 15.1807 7.62372 15.1807C7.36097 15.1807 7.11856 15.1478 6.89647 15.0822C6.67439 15.0165 6.4742 14.9117 6.29591 14.7678C6.12075 14.6208 5.97061 14.43 5.84549 14.1954C5.72037 13.9608 5.62497 13.6762 5.55928 13.3415C5.4936 13.0068 5.46075 12.6158 5.46075 12.1685V11.1269C5.46075 10.567 5.5108 10.0978 5.61089 9.71933C5.71412 9.34085 5.85957 9.03744 6.04724 8.8091C6.23492 8.57764 6.46013 8.41186 6.72287 8.31176C6.98875 8.21167 7.2859 8.16162 7.61433 8.16162C7.88021 8.16162 8.12419 8.19446 8.34627 8.26015C8.57148 8.32271 8.77167 8.42437 8.94683 8.56512C9.12199 8.70275 9.27057 8.8873 9.39256 9.11877C9.51768 9.34711 9.61308 9.62706 9.67877 9.95862C9.74445 10.2902 9.7773 10.6796 9.7773 11.1269ZM8.9046 12.3093V10.9814C8.9046 10.6749 8.88584 10.4059 8.8483 10.1744C8.81389 9.93985 8.76228 9.73966 8.69347 9.57388C8.62465 9.4081 8.53707 9.2736 8.43072 9.17038C8.3275 9.06716 8.20708 8.99209 8.06945 8.94517C7.93495 8.89512 7.78324 8.8701 7.61433 8.8701C7.40789 8.8701 7.22491 8.9092 7.06538 8.98739C6.90586 9.06246 6.77136 9.18289 6.66188 9.34867C6.55553 9.51445 6.4742 9.73184 6.4179 10.0008C6.3616 10.2698 6.33345 10.5967 6.33345 10.9814V12.3093C6.33345 12.6158 6.35065 12.8864 6.38506 13.121C6.42259 13.3555 6.47733 13.5589 6.54927 13.7309C6.62122 13.8998 6.7088 14.039 6.81202 14.1485C6.91524 14.258 7.0341 14.3393 7.1686 14.3925C7.30623 14.4425 7.45794 14.4675 7.62372 14.4675C7.83642 14.4675 8.02253 14.4269 8.18205 14.3455C8.34158 14.2642 8.47451 14.1375 8.58086 13.9655C8.69034 13.7903 8.77167 13.5667 8.82484 13.2946C8.87802 13.0193 8.9046 12.6909 8.9046 12.3093Z" fill="white"/>
<path d="M11.0019 14.627C11.0019 14.48 11.0472 14.3565 11.1379 14.2564C11.2318 14.1532 11.3663 14.1016 11.5414 14.1016C11.7166 14.1016 11.8495 14.1532 11.9403 14.2564C12.0341 14.3565 12.081 14.48 12.081 14.627C12.081 14.7709 12.0341 14.8929 11.9403 14.993C11.8495 15.0931 11.7166 15.1432 11.5414 15.1432C11.3663 15.1432 11.2318 15.0931 11.1379 14.993C11.0472 14.8929 11.0019 14.7709 11.0019 14.627Z" fill="white"/>
<path d="M18.0444 12.7878V13.501H13.1085V12.9896L16.1677 8.25546H16.8761L16.116 9.62549L14.0938 12.7878H18.0444ZM17.092 8.25546V15.0869H16.224V8.25546H17.092Z" fill="white"/>
<path d="M23.121 11.1269V12.1685C23.121 12.7284 23.071 13.2007 22.9709 13.5854C22.8708 13.9702 22.7269 14.2798 22.5392 14.5144C22.3516 14.749 22.1248 14.9195 21.8589 15.0259C21.5962 15.1291 21.299 15.1807 20.9675 15.1807C20.7047 15.1807 20.4623 15.1478 20.2402 15.0822C20.0181 15.0165 19.8179 14.9117 19.6397 14.7678C19.4645 14.6208 19.3144 14.43 19.1892 14.1954C19.0641 13.9608 18.9687 13.6762 18.903 13.3415C18.8373 13.0068 18.8045 12.6158 18.8045 12.1685V11.1269C18.8045 10.567 18.8545 10.0978 18.9546 9.71933C19.0579 9.34085 19.2033 9.03744 19.391 8.8091C19.5787 8.57764 19.8039 8.41186 20.0666 8.31176C20.3325 8.21167 20.6296 8.16162 20.9581 8.16162C21.224 8.16162 21.4679 8.19446 21.69 8.26015C21.9152 8.32271 22.1154 8.42437 22.2906 8.56512C22.4657 8.70275 22.6143 8.8873 22.7363 9.11877C22.8614 9.34711 22.9568 9.62706 23.0225 9.95862C23.0882 10.2902 23.121 10.6796 23.121 11.1269ZM22.2483 12.3093V10.9814C22.2483 10.6749 22.2296 10.4059 22.192 10.1744C22.1576 9.93985 22.106 9.73966 22.0372 9.57388C21.9684 9.4081 21.8808 9.2736 21.7745 9.17038C21.6712 9.06716 21.5508 8.99209 21.4132 8.94517C21.2787 8.89512 21.127 8.8701 20.9581 8.8701C20.7516 8.8701 20.5687 8.9092 20.4091 8.98739C20.2496 9.06246 20.1151 9.18289 20.0056 9.34867C19.8993 9.51445 19.8179 9.73184 19.7616 10.0008C19.7053 10.2698 19.6772 10.5967 19.6772 10.9814V12.3093C19.6772 12.6158 19.6944 12.8864 19.7288 13.121C19.7663 13.3555 19.8211 13.5589 19.893 13.7309C19.965 13.8998 20.0525 14.039 20.1558 14.1485C20.259 14.258 20.3778 14.3393 20.5123 14.3925C20.65 14.4425 20.8017 14.4675 20.9675 14.4675C21.1802 14.4675 21.3663 14.4269 21.5258 14.3455C21.6853 14.2642 21.8183 14.1375 21.9246 13.9655C22.0341 13.7903 22.1154 13.5667 22.1686 13.2946C22.2218 13.0193 22.2483 12.6909 22.2483 12.3093Z" fill="white"/>
<path d="M9.7773 35.0996V36.1412C9.7773 36.7011 9.72725 37.1734 9.62716 37.5581C9.52706 37.9428 9.38318 38.2525 9.1955 38.4871C9.00783 38.7217 8.78105 38.8922 8.51518 38.9985C8.25243 39.1017 7.95528 39.1533 7.62372 39.1533C7.36097 39.1533 7.11856 39.1205 6.89647 39.0548C6.67439 38.9891 6.4742 38.8843 6.29591 38.7405C6.12075 38.5934 5.97061 38.4026 5.84549 38.1681C5.72037 37.9335 5.62497 37.6488 5.55928 37.3141C5.4936 36.9794 5.46075 36.5884 5.46075 36.1412V35.0996C5.46075 34.5397 5.5108 34.0705 5.61089 33.692C5.71412 33.3135 5.85957 33.0101 6.04724 32.7818C6.23492 32.5503 6.46013 32.3845 6.72287 32.2844C6.98875 32.1843 7.2859 32.1343 7.61433 32.1343C7.88021 32.1343 8.12419 32.1671 8.34627 32.2328C8.57148 32.2954 8.77167 32.397 8.94683 32.5378C9.12199 32.6754 9.27057 32.86 9.39256 33.0914C9.51768 33.3198 9.61308 33.5997 9.67877 33.9313C9.74445 34.2628 9.7773 34.6523 9.7773 35.0996ZM8.9046 36.2819V34.9541C8.9046 34.6476 8.88584 34.3786 8.8483 34.1471C8.81389 33.9125 8.76228 33.7123 8.69347 33.5465C8.62465 33.3808 8.53707 33.2463 8.43072 33.143C8.3275 33.0398 8.20708 32.9647 8.06945 32.9178C7.93495 32.8678 7.78324 32.8428 7.61433 32.8428C7.40789 32.8428 7.22491 32.8819 7.06538 32.9601C6.90586 33.0351 6.77136 33.1555 6.66188 33.3213C6.55553 33.4871 6.4742 33.7045 6.4179 33.9735C6.3616 34.2425 6.33345 34.5694 6.33345 34.9541V36.2819C6.33345 36.5884 6.35065 36.859 6.38506 37.0936C6.42259 37.3282 6.47733 37.5315 6.54927 37.7036C6.62122 37.8725 6.7088 38.0117 6.81202 38.1211C6.91524 38.2306 7.0341 38.3119 7.1686 38.3651C7.30623 38.4152 7.45794 38.4402 7.62372 38.4402C7.83642 38.4402 8.02253 38.3995 8.18205 38.3182C8.34158 38.2369 8.47451 38.1102 8.58086 37.9381C8.69034 37.763 8.77167 37.5393 8.82484 37.2672C8.87802 36.992 8.9046 36.6635 8.9046 36.2819Z" fill="white"/>
<path d="M11.0019 38.5997C11.0019 38.4527 11.0472 38.3291 11.1379 38.229C11.2318 38.1258 11.3663 38.0742 11.5414 38.0742C11.7166 38.0742 11.8495 38.1258 11.9403 38.229C12.0341 38.3291 12.081 38.4527 12.081 38.5997C12.081 38.7436 12.0341 38.8656 11.9403 38.9657C11.8495 39.0658 11.7166 39.1158 11.5414 39.1158C11.3663 39.1158 11.2318 39.0658 11.1379 38.9657C11.0472 38.8656 11.0019 38.7436 11.0019 38.5997Z" fill="white"/>
<path d="M14.6944 35.2169H15.3137C15.6171 35.2169 15.8674 35.1668 16.0644 35.0667C16.2646 34.9635 16.4132 34.8243 16.5102 34.6491C16.6103 34.4708 16.6603 34.2707 16.6603 34.0486C16.6603 33.7858 16.6165 33.5653 16.5289 33.387C16.4413 33.2087 16.31 33.0742 16.1348 32.9835C15.9596 32.8928 15.7376 32.8474 15.4686 32.8474C15.2246 32.8474 15.0088 32.8959 14.8211 32.9929C14.6365 33.0867 14.4911 33.2212 14.3847 33.3964C14.2815 33.5716 14.2299 33.778 14.2299 34.0157H13.3619C13.3619 33.6685 13.4495 33.3526 13.6246 33.068C13.7998 32.7833 14.0454 32.5565 14.3613 32.3876C14.6803 32.2187 15.0494 32.1343 15.4686 32.1343C15.8814 32.1343 16.2427 32.2078 16.5524 32.3548C16.8621 32.4987 17.1029 32.7145 17.2749 33.0023C17.447 33.2869 17.533 33.6419 17.533 34.0673C17.533 34.2394 17.4923 34.4239 17.411 34.621C17.3328 34.8149 17.2093 34.9963 17.0403 35.1652C16.8746 35.3341 16.6587 35.4733 16.3929 35.5828C16.127 35.6892 15.8079 35.7423 15.4357 35.7423H14.6944V35.2169ZM14.6944 35.93V35.4092H15.4357C15.8705 35.4092 16.2302 35.4608 16.5149 35.5641C16.7995 35.6673 17.0231 35.8049 17.1858 35.9769C17.3516 36.149 17.4673 36.3382 17.533 36.5447C17.6018 36.748 17.6362 36.9513 17.6362 37.1546C17.6362 37.4737 17.5815 37.7567 17.472 38.0038C17.3657 38.2509 17.2139 38.4605 17.0169 38.6325C16.823 38.8046 16.5946 38.9344 16.3319 39.022C16.0691 39.1096 15.7829 39.1533 15.4733 39.1533C15.1761 39.1533 14.8962 39.1111 14.6334 39.0267C14.3738 38.9422 14.1439 38.8202 13.9437 38.6607C13.7435 38.498 13.5871 38.2994 13.4745 38.0648C13.3619 37.8271 13.3056 37.5565 13.3056 37.2531H14.1736C14.1736 37.4909 14.2252 37.6989 14.3284 37.8772C14.4348 38.0554 14.5849 38.1946 14.7789 38.2947C14.9759 38.3917 15.2074 38.4402 15.4733 38.4402C15.7391 38.4402 15.9675 38.3948 16.1583 38.3041C16.3522 38.2103 16.5008 38.0695 16.604 37.8818C16.7104 37.6942 16.7635 37.458 16.7635 37.1734C16.7635 36.8887 16.7041 36.6557 16.5852 36.4743C16.4664 36.2897 16.2975 36.1537 16.0785 36.0661C15.8627 35.9754 15.6078 35.93 15.3137 35.93H14.6944Z" fill="white"/>
<path d="M23.121 35.0996V36.1412C23.121 36.7011 23.071 37.1734 22.9709 37.5581C22.8708 37.9428 22.7269 38.2525 22.5392 38.4871C22.3516 38.7217 22.1248 38.8922 21.8589 38.9985C21.5962 39.1017 21.299 39.1533 20.9675 39.1533C20.7047 39.1533 20.4623 39.1205 20.2402 39.0548C20.0181 38.9891 19.8179 38.8843 19.6397 38.7405C19.4645 38.5934 19.3144 38.4026 19.1892 38.1681C19.0641 37.9335 18.9687 37.6488 18.903 37.3141C18.8373 36.9794 18.8045 36.5884 18.8045 36.1412V35.0996C18.8045 34.5397 18.8545 34.0705 18.9546 33.692C19.0579 33.3135 19.2033 33.0101 19.391 32.7818C19.5787 32.5503 19.8039 32.3845 20.0666 32.2844C20.3325 32.1843 20.6296 32.1343 20.9581 32.1343C21.224 32.1343 21.4679 32.1671 21.69 32.2328C21.9152 32.2954 22.1154 32.397 22.2906 32.5378C22.4657 32.6754 22.6143 32.86 22.7363 33.0914C22.8614 33.3198 22.9568 33.5997 23.0225 33.9313C23.0882 34.2628 23.121 34.6523 23.121 35.0996ZM22.2483 36.2819V34.9541C22.2483 34.6476 22.2296 34.3786 22.192 34.1471C22.1576 33.9125 22.106 33.7123 22.0372 33.5465C21.9684 33.3808 21.8808 33.2463 21.7745 33.143C21.6712 33.0398 21.5508 32.9647 21.4132 32.9178C21.2787 32.8678 21.127 32.8428 20.9581 32.8428C20.7516 32.8428 20.5687 32.8819 20.4091 32.9601C20.2496 33.0351 20.1151 33.1555 20.0056 33.3213C19.8993 33.4871 19.8179 33.7045 19.7616 33.9735C19.7053 34.2425 19.6772 34.5694 19.6772 34.9541V36.2819C19.6772 36.5884 19.6944 36.859 19.7288 37.0936C19.7663 37.3282 19.8211 37.5315 19.893 37.7036C19.965 37.8725 20.0525 38.0117 20.1558 38.1211C20.259 38.2306 20.3778 38.3119 20.5123 38.3651C20.65 38.4152 20.8017 38.4402 20.9675 38.4402C21.1802 38.4402 21.3663 38.3995 21.5258 38.3182C21.6853 38.2369 21.8183 38.1102 21.9246 37.9381C22.0341 37.763 22.1154 37.5393 22.1686 37.2672C22.2218 36.992 22.2483 36.6635 22.2483 36.2819Z" fill="white"/>
<path d="M33.8875 11.826V12.5392H31.5979V11.826H33.8875Z" fill="white"/>
<path d="M38.9313 11.1269V12.1685C38.9313 12.7284 38.8813 13.2007 38.7812 13.5854C38.6811 13.9702 38.5372 14.2798 38.3495 14.5144C38.1618 14.749 37.9351 14.9195 37.6692 15.0259C37.4064 15.1291 37.1093 15.1807 36.7777 15.1807C36.515 15.1807 36.2726 15.1478 36.0505 15.0822C35.8284 15.0165 35.6282 14.9117 35.4499 14.7678C35.2747 14.6208 35.1246 14.43 34.9995 14.1954C34.8744 13.9608 34.779 13.6762 34.7133 13.3415C34.6476 13.0068 34.6148 12.6158 34.6148 12.1685V11.1269C34.6148 10.567 34.6648 10.0978 34.7649 9.71933C34.8681 9.34085 35.0136 9.03744 35.2012 8.8091C35.3889 8.57764 35.6141 8.41186 35.8769 8.31176C36.1427 8.21167 36.4399 8.16162 36.7683 8.16162C37.0342 8.16162 37.2782 8.19446 37.5003 8.26015C37.7255 8.32271 37.9257 8.42437 38.1008 8.56512C38.276 8.70275 38.4246 8.8873 38.5466 9.11877C38.6717 9.34711 38.7671 9.62706 38.8328 9.95862C38.8985 10.2902 38.9313 10.6796 38.9313 11.1269ZM38.0586 12.3093V10.9814C38.0586 10.6749 38.0398 10.4059 38.0023 10.1744C37.9679 9.93985 37.9163 9.73966 37.8475 9.57388C37.7787 9.4081 37.6911 9.2736 37.5847 9.17038C37.4815 9.06716 37.3611 8.99209 37.2234 8.94517C37.0889 8.89512 36.9372 8.8701 36.7683 8.8701C36.5619 8.8701 36.3789 8.9092 36.2194 8.98739C36.0599 9.06246 35.9254 9.18289 35.8159 9.34867C35.7095 9.51445 35.6282 9.73184 35.5719 10.0008C35.5156 10.2698 35.4874 10.5967 35.4874 10.9814V12.3093C35.4874 12.6158 35.5047 12.8864 35.5391 13.121C35.5766 13.3555 35.6313 13.5589 35.7033 13.7309C35.7752 13.8998 35.8628 14.039 35.966 14.1485C36.0692 14.258 36.1881 14.3393 36.3226 14.3925C36.4602 14.4425 36.6119 14.4675 36.7777 14.4675C36.9904 14.4675 37.1765 14.4269 37.3361 14.3455C37.4956 14.2642 37.6285 14.1375 37.7349 13.9655C37.8443 13.7903 37.9257 13.5667 37.9788 13.2946C38.032 13.0193 38.0586 12.6909 38.0586 12.3093Z" fill="white"/>
<path d="M40.1559 14.627C40.1559 14.48 40.2012 14.3565 40.2919 14.2564C40.3858 14.1532 40.5203 14.1016 40.6954 14.1016C40.8706 14.1016 41.0036 14.1532 41.0943 14.2564C41.1881 14.3565 41.235 14.48 41.235 14.627C41.235 14.7709 41.1881 14.8929 41.0943 14.993C41.0036 15.0931 40.8706 15.1432 40.6954 15.1432C40.5203 15.1432 40.3858 15.0931 40.2919 14.993C40.2012 14.8929 40.1559 14.7709 40.1559 14.627Z" fill="white"/>
<path d="M47.0577 14.3737V15.0869H42.5863V14.4628L44.8243 11.9714C45.0996 11.6649 45.3123 11.4053 45.4624 11.1926C45.6157 10.9768 45.722 10.7844 45.7815 10.6155C45.844 10.4434 45.8753 10.2683 45.8753 10.09C45.8753 9.86478 45.8284 9.66146 45.7345 9.48004C45.6438 9.2955 45.5093 9.14848 45.331 9.03901C45.1527 8.92953 44.9369 8.87479 44.6836 8.87479C44.3801 8.87479 44.1268 8.93422 43.9235 9.05308C43.7233 9.16881 43.5731 9.33147 43.4731 9.54104C43.373 9.75061 43.3229 9.99146 43.3229 10.2636H42.4549C42.4549 9.87885 42.5394 9.52696 42.7083 9.20791C42.8772 8.88886 43.1274 8.6355 43.459 8.44783C43.7905 8.25702 44.1987 8.16162 44.6836 8.16162C45.1152 8.16162 45.4843 8.23826 45.7908 8.39152C46.0974 8.54166 46.332 8.75436 46.4946 9.02962C46.6604 9.30175 46.7433 9.6208 46.7433 9.98677C46.7433 10.187 46.7089 10.3903 46.6401 10.5967C46.5744 10.8 46.4821 11.0033 46.3633 11.2067C46.2475 11.41 46.1115 11.6102 45.9551 11.8072C45.8018 12.0043 45.6376 12.1982 45.4624 12.389L43.6326 14.3737H47.0577Z" fill="white"/>
<path d="M49.0846 11.8354L48.3902 11.6571L48.7327 8.25546H52.2375V9.05777H49.4693L49.2628 10.9158C49.388 10.8438 49.5459 10.7766 49.7367 10.714C49.9307 10.6515 50.1527 10.6202 50.403 10.6202C50.7189 10.6202 51.002 10.6749 51.2522 10.7844C51.5024 10.8907 51.7151 11.044 51.8903 11.2442C52.0686 11.4444 52.2047 11.6852 52.2985 11.9667C52.3923 12.2483 52.4393 12.5626 52.4393 12.9098C52.4393 13.2382 52.3939 13.5401 52.3032 13.8154C52.2156 14.0906 52.0827 14.3315 51.9044 14.5379C51.7261 14.7412 51.5009 14.8992 51.2287 15.0118C50.9597 15.1244 50.6423 15.1807 50.2763 15.1807C50.001 15.1807 49.7399 15.1432 49.4927 15.0681C49.2488 14.9899 49.0298 14.8726 48.8359 14.7162C48.6451 14.5567 48.4887 14.3596 48.3667 14.125C48.2478 13.8873 48.1728 13.6089 48.1415 13.2899H48.9673C49.0048 13.5464 49.0799 13.7622 49.1925 13.9373C49.3051 14.1125 49.4521 14.2454 49.6335 14.3362C49.8181 14.4237 50.0323 14.4675 50.2763 14.4675C50.4827 14.4675 50.6657 14.4316 50.8252 14.3596C50.9848 14.2877 51.1193 14.1844 51.2287 14.0499C51.3382 13.9154 51.4211 13.7528 51.4774 13.562C51.5368 13.3712 51.5666 13.1569 51.5666 12.9192C51.5666 12.7034 51.5368 12.5032 51.4774 12.3186C51.418 12.1341 51.3288 11.973 51.21 11.8354C51.0942 11.6977 50.9519 11.5914 50.783 11.5163C50.6141 11.4381 50.4202 11.399 50.2012 11.399C49.9103 11.399 49.6898 11.4381 49.5397 11.5163C49.3927 11.5945 49.2409 11.7009 49.0846 11.8354Z" fill="white"/>
<path d="M33.8875 35.7986V36.5118H31.5979V35.7986H33.8875Z" fill="white"/>
<path d="M37.4956 32.1906V39.0595H36.6276V33.2744L34.8775 33.9125V33.129L37.3595 32.1906H37.4956Z" fill="white"/>
<path d="M40.1559 38.5997C40.1559 38.4527 40.2012 38.3291 40.2919 38.229C40.3858 38.1258 40.5203 38.0742 40.6954 38.0742C40.8706 38.0742 41.0036 38.1258 41.0943 38.229C41.1881 38.3291 41.235 38.4527 41.235 38.5997C41.235 38.7436 41.1881 38.8656 41.0943 38.9657C41.0036 39.0658 40.8706 39.1158 40.6954 39.1158C40.5203 39.1158 40.3858 39.0658 40.2919 38.9657C40.2012 38.8656 40.1559 38.7436 40.1559 38.5997Z" fill="white"/>
<path d="M46.87 35.0996V36.1412C46.87 36.7011 46.8199 37.1734 46.7198 37.5581C46.6197 37.9428 46.4759 38.2525 46.2882 38.4871C46.1005 38.7217 45.8737 38.8922 45.6079 38.9985C45.3451 39.1017 45.048 39.1533 44.7164 39.1533C44.4537 39.1533 44.2112 39.1205 43.9892 39.0548C43.7671 38.9891 43.5669 38.8843 43.3886 38.7405C43.2134 38.5934 43.0633 38.4026 42.9382 38.1681C42.8131 37.9335 42.7177 37.6488 42.652 37.3141C42.5863 36.9794 42.5534 36.5884 42.5534 36.1412V35.0996C42.5534 34.5397 42.6035 34.0705 42.7036 33.692C42.8068 33.3135 42.9523 33.0101 43.1399 32.7818C43.3276 32.5503 43.5528 32.3845 43.8156 32.2844C44.0814 32.1843 44.3786 32.1343 44.707 32.1343C44.9729 32.1343 45.2169 32.1671 45.439 32.2328C45.6642 32.2954 45.8644 32.397 46.0395 32.5378C46.2147 32.6754 46.3633 32.86 46.4852 33.0914C46.6104 33.3198 46.7058 33.5997 46.7715 33.9313C46.8371 34.2628 46.87 34.6523 46.87 35.0996ZM45.9973 36.2819V34.9541C45.9973 34.6476 45.9785 34.3786 45.941 34.1471C45.9066 33.9125 45.855 33.7123 45.7862 33.5465C45.7173 33.3808 45.6298 33.2463 45.5234 33.143C45.4202 33.0398 45.2998 32.9647 45.1621 32.9178C45.0276 32.8678 44.8759 32.8428 44.707 32.8428C44.5006 32.8428 44.3176 32.8819 44.1581 32.9601C43.9985 33.0351 43.864 33.1555 43.7546 33.3213C43.6482 33.4871 43.5669 33.7045 43.5106 33.9735C43.4543 34.2425 43.4261 34.5694 43.4261 34.9541V36.2819C43.4261 36.5884 43.4433 36.859 43.4777 37.0936C43.5153 37.3282 43.57 37.5315 43.642 37.7036C43.7139 37.8725 43.8015 38.0117 43.9047 38.1211C44.0079 38.2306 44.1268 38.3119 44.2613 38.3651C44.3989 38.4152 44.5506 38.4402 44.7164 38.4402C44.9291 38.4402 45.1152 38.3995 45.2747 38.3182C45.4343 38.2369 45.5672 38.1102 45.6735 37.9381C45.783 37.763 45.8644 37.5393 45.9175 37.2672C45.9707 36.992 45.9973 36.6635 45.9973 36.2819Z" fill="white"/>
<path d="M52.275 35.0996V36.1412C52.275 36.7011 52.225 37.1734 52.1249 37.5581C52.0248 37.9428 51.8809 38.2525 51.6932 38.4871C51.5056 38.7217 51.2788 38.8922 51.0129 38.9985C50.7502 39.1017 50.453 39.1533 50.1215 39.1533C49.8587 39.1533 49.6163 39.1205 49.3942 39.0548C49.1721 38.9891 48.9719 38.8843 48.7937 38.7405C48.6185 38.5934 48.4684 38.4026 48.3432 38.1681C48.2181 37.9335 48.1227 37.6488 48.057 37.3141C47.9913 36.9794 47.9585 36.5884 47.9585 36.1412V35.0996C47.9585 34.5397 48.0085 34.0705 48.1086 33.692C48.2119 33.3135 48.3573 33.0101 48.545 32.7818C48.7327 32.5503 48.9579 32.3845 49.2206 32.2844C49.4865 32.1843 49.7836 32.1343 50.1121 32.1343C50.378 32.1343 50.6219 32.1671 50.844 32.2328C51.0692 32.2954 51.2694 32.397 51.4446 32.5378C51.6197 32.6754 51.7683 32.86 51.8903 33.0914C52.0154 33.3198 52.1108 33.5997 52.1765 33.9313C52.2422 34.2628 52.275 34.6523 52.275 35.0996ZM51.4023 36.2819V34.9541C51.4023 34.6476 51.3836 34.3786 51.346 34.1471C51.3116 33.9125 51.26 33.7123 51.1912 33.5465C51.1224 33.3808 51.0348 33.2463 50.9285 33.143C50.8252 33.0398 50.7048 32.9647 50.5672 32.9178C50.4327 32.8678 50.281 32.8428 50.1121 32.8428C49.9056 32.8428 49.7227 32.8819 49.5631 32.9601C49.4036 33.0351 49.2691 33.1555 49.1596 33.3213C49.0533 33.4871 48.9719 33.7045 48.9156 33.9735C48.8593 34.2425 48.8312 34.5694 48.8312 34.9541V36.2819C48.8312 36.5884 48.8484 36.859 48.8828 37.0936C48.9203 37.3282 48.9751 37.5315 49.047 37.7036C49.119 37.8725 49.2065 38.0117 49.3098 38.1211C49.413 38.2306 49.5318 38.3119 49.6663 38.3651C49.804 38.4152 49.9557 38.4402 50.1215 38.4402C50.3342 38.4402 50.5203 38.3995 50.6798 38.3182C50.8393 38.2369 50.9723 38.1102 51.0786 37.9381C51.1881 37.763 51.2694 37.5393 51.3226 37.2672C51.3758 36.992 51.4023 36.6635 51.4023 36.2819Z" fill="white"/>
<defs>
<linearGradient id="paint0_linear_23_360" x1="-10.6253" y1="-8.11614" x2="36.5556" y2="-2.0714" gradientUnits="userSpaceOnUse">
<stop stop-color="#8FFF9B"/>
<stop offset="1" stop-color="#62FFE3"/>
</linearGradient>
<linearGradient id="paint1_linear_23_360" x1="54.871" y1="-1.64422" x2="26.0548" y2="18.1108" gradientUnits="userSpaceOnUse">
<stop stop-color="#51D9E1"/>
<stop offset="1" stop-color="#94FFD8"/>
</linearGradient>
<linearGradient id="paint2_linear_23_360" x1="28.5" y1="24.1904" x2="-2.97913" y2="41.8565" gradientUnits="userSpaceOnUse">
<stop stop-color="#FFB4B4"/>
<stop offset="1" stop-color="#FF7E7E"/>
</linearGradient>
<linearGradient id="paint3_linear_23_360" x1="28.5001" y1="26.7632" x2="58.1337" y2="42.3673" gradientUnits="userSpaceOnUse">
<stop stop-color="#FFD1A0"/>
<stop offset="1" stop-color="#FF8668"/>
</linearGradient>
</defs>
</svg>
