<svg width="96" height="40" viewBox="0 0 96 40" fill="none" xmlns="http://www.w3.org/2000/svg">
<path d="M30.7585 11.7629C31.215 11.8169 31.6352 12.0312 31.9407 12.3656C32.2462 12.7 32.416 13.1315 32.4175 13.579V33.547C32.423 33.7879 32.3756 34.0272 32.2786 34.2489C32.1816 34.4706 32.0369 34.6695 31.8546 34.8326C31.5638 35.1276 31.1767 35.3148 30.7594 35.3621V38.7857C30.7594 38.8495 30.7334 38.9109 30.6872 38.9562C30.6409 39.0016 30.5779 39.0273 30.5122 39.0278C30.4462 39.0277 30.3831 39.0021 30.3363 38.9568C30.2895 38.9114 30.2626 38.8499 30.2622 38.7857V35.3621C29.8454 35.3142 29.4588 35.127 29.168 34.8326C28.9855 34.6696 28.8409 34.4707 28.744 34.249C28.647 34.0272 28.6002 33.7879 28.606 33.547V13.579C28.6071 13.1319 28.776 12.7006 29.0809 12.3662C29.3859 12.0318 29.8061 11.8172 30.2622 11.7629V5.55806C30.2626 5.49388 30.2895 5.43247 30.3363 5.38726C30.3831 5.34206 30.4462 5.31677 30.5122 5.31689C30.5778 5.31714 30.64 5.34262 30.6863 5.38782C30.7325 5.43303 30.7594 5.49425 30.7594 5.55806L30.7585 11.7629Z" fill="url(#paint0_linear_23_539)"/>
<path d="M23.962 6.63258C24.4177 6.68792 24.8371 6.90275 25.1419 7.23694C25.4467 7.57114 25.616 8.00185 25.6182 8.44862V28.4167C25.6239 28.6574 25.5764 28.8966 25.4793 29.1181C25.3823 29.3396 25.2377 29.5383 25.0553 29.7011C24.7655 29.9964 24.3789 30.184 23.962 30.2314V35.1782C23.9612 35.242 23.9348 35.3029 23.8884 35.348C23.8419 35.393 23.779 35.4185 23.7134 35.4189C23.6477 35.4189 23.585 35.3936 23.5384 35.3485C23.4919 35.3034 23.4655 35.2421 23.4653 35.1782V30.2318C23.0484 30.1841 22.6613 29.9966 22.371 29.7015C22.1887 29.5387 22.0444 29.3399 21.9475 29.1184C21.8505 28.8969 21.8034 28.6579 21.809 28.4172V8.44908C21.8109 8.00227 21.9801 7.57141 22.2849 7.23714C22.5897 6.90287 23.0091 6.68811 23.4648 6.63304V0.428631C23.4648 0.3645 23.4909 0.302989 23.5375 0.257598C23.5841 0.212207 23.647 0.186646 23.7129 0.186523V0.186523C23.7788 0.186767 23.8423 0.212368 23.8888 0.257732C23.9354 0.303096 23.9614 0.364537 23.9615 0.428631L23.962 6.63258Z" fill="url(#paint1_linear_23_539)"/>
<path d="M89.9429 16.6075C89.7292 16.6027 89.517 16.6406 89.3189 16.7188C89.1208 16.797 88.9411 16.914 88.7912 17.0624C88.6418 17.2089 88.5242 17.3829 88.445 17.5744C88.3658 17.7659 88.3268 17.971 88.3302 18.1774C88.3234 18.4655 88.4047 18.7491 88.5644 18.9919C88.7241 19.2346 88.9546 19.4255 89.2263 19.5402C90.0758 19.8464 90.9445 20.1 91.8269 20.2992C92.8392 20.5294 93.7806 20.9889 94.5756 21.6406C95.4354 22.4416 95.8661 23.572 95.8661 25.0481C95.8682 25.7414 95.7286 26.4282 95.4569 27.0691C95.1852 27.7099 94.7859 28.2922 94.2821 28.7824C93.7783 29.2726 93.1799 29.6612 92.5212 29.9256C91.8626 30.19 91.1572 30.3251 90.4447 30.3232H86.3851C86.1387 30.3248 85.8947 30.2776 85.6676 30.1845C85.4405 30.0915 85.235 29.9546 85.064 29.7819C84.883 29.618 84.7399 29.4187 84.6437 29.1972C84.5475 28.9756 84.5004 28.7367 84.5057 28.4962V28.4654C84.5095 27.9798 84.7082 27.5148 85.0594 27.1697C85.4105 26.8247 85.8861 26.6268 86.3851 26.6183H90.5974C90.8102 26.6208 91.0215 26.5821 91.2187 26.5043C91.4158 26.4265 91.5947 26.3112 91.7454 26.1652C91.8962 26.0192 92.0154 25.8455 92.0963 25.6541C92.1772 25.4627 92.2183 25.2573 92.2167 25.0504C92.2161 24.7781 92.1312 24.5124 91.9732 24.2877C91.8152 24.063 91.5913 23.8897 91.3307 23.7905C91.1761 23.7241 90.305 23.4715 88.719 23.0371C87.6973 22.7991 86.7516 22.3204 85.9648 21.6431C85.1056 20.8281 84.6761 19.6735 84.6761 18.1797C84.6817 16.7822 85.2547 15.4434 86.2703 14.4551C87.2859 13.4668 88.662 12.909 90.0984 12.9032H92.9638C93.4659 12.9047 93.9467 13.0995 94.3015 13.4452C94.6563 13.7909 94.8563 14.2593 94.857 14.7478V14.7787C94.8636 15.019 94.8175 15.258 94.7219 15.4796C94.6262 15.7013 94.4824 15.9006 94.3015 16.0644C94.1286 16.2396 93.9207 16.3784 93.6905 16.4724C93.4603 16.5664 93.2134 16.6136 92.9638 16.6109L89.9429 16.6075ZM66.4519 36.5396C65.9557 36.5338 65.4816 36.3395 65.1308 35.9981C64.7799 35.6566 64.5802 35.1953 64.5744 34.7125V21.5838C64.5813 19.8636 65.1118 18.1841 66.0991 16.757C67.0865 15.33 68.4862 14.2195 70.1217 13.5657C71.7572 12.9119 73.5552 12.7441 75.2886 13.0836C77.0219 13.4231 78.613 14.2546 79.861 15.4731C81.1091 16.6916 81.9577 18.2426 82.3005 19.9302C82.6433 21.6178 82.4654 23.3663 81.7876 24.9551C81.1098 26.544 79.9631 27.9019 78.4927 28.8574C77.0224 29.8129 75.294 30.323 73.5259 30.3237C71.2705 30.3237 69.5506 29.8193 68.3831 28.8126V34.7125C68.3749 35.1957 68.1729 35.6567 67.8211 35.9978C67.4694 36.3389 66.9957 36.5332 66.4991 36.5396H66.4519ZM73.5259 26.587C74.2056 26.5933 74.8799 26.4686 75.5098 26.2199C76.1397 25.9712 76.7127 25.6036 77.1957 25.1382C77.6787 24.6728 78.0617 24.1188 78.3233 23.5084C78.585 22.898 78.7205 22.2432 78.7205 21.5818C78.7205 20.9205 78.585 20.2656 78.3233 19.6552C78.0617 19.0448 77.6787 18.4911 77.1957 18.0257C76.7127 17.5603 76.1397 17.1926 75.5098 16.9439C74.8799 16.6953 74.2056 16.5703 73.5259 16.5767C72.5096 16.579 71.5164 16.8736 70.6716 17.4233C69.8269 17.973 69.1687 18.7534 68.7784 19.6663C68.3881 20.5792 68.2835 21.584 68.4784 22.5543C68.6734 23.5247 69.1588 24.4172 69.8736 25.12C70.3466 25.5948 70.9145 25.9703 71.5428 26.2226C72.1711 26.475 72.8463 26.5989 73.5259 26.587ZM58.9807 10.935C58.6235 10.937 58.2708 10.8532 57.955 10.6909C57.6391 10.5286 57.3695 10.2928 57.1699 10.0046C56.9703 9.71639 56.8467 9.38477 56.8107 9.03903C56.7746 8.69329 56.8274 8.34437 56.9634 8.02305C57.0995 7.70173 57.3152 7.41806 57.5911 7.19734C57.867 6.97663 58.1944 6.82559 58.5447 6.75781C58.895 6.69002 59.2575 6.70748 59.5992 6.8087C59.9409 6.90991 60.2516 7.09185 60.5037 7.33808C60.71 7.53071 60.8739 7.76194 60.986 8.01787C61.0982 8.2738 61.1563 8.54915 61.1563 8.82737C61.1563 9.10559 61.0982 9.38093 60.986 9.63686C60.8739 9.89279 60.71 10.124 60.5037 10.3167C60.3065 10.5153 60.0694 10.6726 59.8075 10.7789C59.5456 10.8853 59.2645 10.9383 58.9807 10.935ZM58.9974 12.9014C59.2445 12.8962 59.49 12.9419 59.7177 13.0354C59.9453 13.1289 60.15 13.2682 60.3185 13.4441C60.497 13.6129 60.6376 13.8152 60.7333 14.0388C60.8289 14.2623 60.8775 14.5023 60.8749 14.7445V28.4971C60.8691 28.9798 60.6694 29.4412 60.3185 29.7826C59.9677 30.124 59.4936 30.3184 58.9974 30.3242H58.965C58.7158 30.3276 58.4683 30.2815 58.2383 30.1884C58.0082 30.0953 57.8003 29.9572 57.6272 29.7828C57.4463 29.6187 57.3028 29.4195 57.206 29.1981C57.1092 28.9766 57.0613 28.7377 57.0653 28.4971V14.7445C57.0643 14.5021 57.1131 14.262 57.2097 14.0385C57.3063 13.8151 57.4485 13.613 57.6272 13.4441C57.8003 13.2696 58.0082 13.1314 58.2383 13.0381C58.4683 12.9447 58.7158 12.8982 58.965 12.9014H58.9974ZM37.8199 36.54C37.3237 36.534 36.849 36.3396 36.4979 35.9983C36.1468 35.657 35.9463 35.1958 35.9396 34.713V21.5843C35.9463 19.8637 36.4771 18.1837 37.4644 16.7561C38.4518 15.3286 39.8521 14.2177 41.4879 13.5636C43.1237 12.9096 44.9219 12.7418 46.6557 13.0813C48.3895 13.4208 49.9807 14.2525 51.2291 15.4713C52.4774 16.6901 53.3267 18.2413 53.6695 19.9293C54.0123 21.6173 53.8337 23.3662 53.1557 24.9554C52.4776 26.5445 51.3306 27.9025 49.8598 28.8581C48.3891 29.8136 46.6606 30.3238 44.892 30.3242C42.6386 30.3242 40.9177 29.8197 39.7502 28.813V34.713C39.742 35.1959 39.5407 35.6568 39.1892 35.9978C38.8376 36.3389 38.3636 36.5334 37.8671 36.54H37.8199ZM44.892 26.5874C45.5718 26.5938 46.2461 26.4691 46.876 26.2204C47.5059 25.9717 48.0789 25.604 48.5619 25.1387C49.0449 24.6733 49.4278 24.1193 49.6895 23.5089C49.9511 22.8984 50.0857 22.2436 50.0857 21.5823C50.0857 20.9209 49.9511 20.2661 49.6895 19.6557C49.4278 19.0453 49.0449 18.4915 48.5619 18.0261C48.0789 17.5607 47.5059 17.1931 46.876 16.9444C46.2461 16.6957 45.5718 16.5708 44.892 16.5771C43.876 16.5799 42.8831 16.8748 42.0388 17.4247C41.1944 17.9745 40.5355 18.7548 40.1455 19.6676C39.7555 20.5805 39.6515 21.5851 39.8465 22.5552C40.0415 23.5254 40.527 24.4178 41.2416 25.1204C41.7144 25.5951 42.2829 25.9704 42.9108 26.2226C43.5388 26.4749 44.2128 26.5989 44.892 26.587V26.5874Z" fill="#5521A9"/>
<path d="M9.12189 16.6239C8.44265 16.6122 7.76818 16.7362 7.14033 16.9886C6.51248 17.2411 5.94463 17.6163 5.47203 18.0911C4.51637 19.0374 3.98088 20.3111 3.98088 21.6377C3.98088 22.9643 4.51637 24.2376 5.47203 25.1838C5.94777 25.6535 6.51656 26.0242 7.14394 26.2737C7.77132 26.5232 8.44423 26.6464 9.12189 26.6353C9.79895 26.6389 10.47 26.5116 11.0962 26.2611C11.7224 26.0106 12.2913 25.6416 12.77 25.1757C13.2487 24.7098 13.6276 24.1566 13.8849 23.5472C14.1421 22.9379 14.2726 22.2847 14.2687 21.626C14.2797 20.9678 14.1518 20.3146 13.8926 19.7066C13.6335 19.0985 13.2488 18.5486 12.7623 18.0911C12.2912 17.6169 11.725 17.242 11.0988 16.9895C10.4725 16.7371 9.79965 16.6127 9.12189 16.6239ZM9.12189 12.917C10.3007 12.8998 11.4706 13.1176 12.5594 13.5574C13.6482 13.9971 14.6329 14.6494 15.4527 15.4736C16.2988 16.2706 16.9682 17.2276 17.4199 18.2857C17.8716 19.3438 18.096 20.4804 18.0792 21.626V28.5138C18.0844 28.7543 18.0374 28.9929 17.9412 29.2145C17.8451 29.4362 17.702 29.6358 17.5213 29.8C17.35 29.9723 17.1445 30.1088 16.9174 30.2017C16.6903 30.2947 16.4462 30.3422 16.1998 30.3409H16.1524C15.906 30.3431 15.6619 30.2961 15.4348 30.2031C15.2078 30.1101 15.0028 29.973 14.8323 29.8C14.6498 29.6369 14.5051 29.4377 14.4079 29.2159C14.3107 28.9941 14.2632 28.7548 14.2687 28.5138C13.0906 29.7319 11.375 30.3409 9.12189 30.3409C7.94417 30.3577 6.77539 30.1394 5.68757 29.7C4.59974 29.2606 3.61593 28.6094 2.79674 27.786C1.96405 26.9784 1.30338 26.0187 0.852581 24.9623C0.401787 23.9058 0.169739 22.773 0.169739 21.6291C0.169739 20.4853 0.401787 19.353 0.852581 18.2965C1.30338 17.24 1.96405 16.2803 2.79674 15.4727C3.61589 14.6493 4.59969 13.9977 5.68751 13.5583C6.77533 13.1188 7.94414 12.9007 9.12189 12.9174V12.917Z" fill="#5521A9"/>
<defs>
<linearGradient id="paint0_linear_23_539" x1="28.6055" y1="32.3531" x2="28.6055" y2="5.55287" gradientUnits="userSpaceOnUse">
<stop stop-color="#F50057"/>
<stop offset="1" stop-color="#651FFF"/>
</linearGradient>
<linearGradient id="paint1_linear_23_539" x1="21.8086" y1="0.362686" x2="21.8086" y2="35.0314" gradientUnits="userSpaceOnUse">
<stop stop-color="#F50057"/>
<stop offset="1" stop-color="#651FFF"/>
</linearGradient>
</defs>
</svg>
